<svg xmlns="http://www.w3.org/2000/svg" viewBox="0 0 64 64" width="64" height="64"><rect width="64" height="64" rx="15" fill="#7dd56f"/><g transform="translate(9 9) scale(.72)"><path fill-rule="evenodd" fill="#1a1a1a" d="M11,4 h12 a7,7 0 0 1 7,7 v12 a7,7 0 0 1 -7,7 h-12 a7,7 0 0 1 -7,-7 v-12 a7,7 0 0 1 7,-7 z M13,9 h8 a4,4 0 0 1 4,4 v8 a4,4 0 0 1 -4,4 h-8 a4,4 0 0 1 -4,-4 v-8 a4,4 0 0 1 4,-4 z M15.5,13 h3 a2.5,2.5 0 0 1 2.5,2.5 v3 a2.5,2.5 0 0 1 -2.5,2.5 h-3 a2.5,2.5 0 0 1 -2.5,-2.5 v-3 a2.5,2.5 0 0 1 2.5,-2.5 z M41,4 h12 a7,7 0 0 1 7,7 v12 a7,7 0 0 1 -7,7 h-12 a7,7 0 0 1 -7,-7 v-12 a7,7 0 0 1 7,-7 z M43,9 h8 a4,4 0 0 1 4,4 v8 a4,4 0 0 1 -4,4 h-8 a4,4 0 0 1 -4,-4 v-8 a4,4 0 0 1 4,-4 z M45.5,13 h3 a2.5,2.5 0 0 1 2.5,2.5 v3 a2.5,2.5 0 0 1 -2.5,2.5 h-3 a2.5,2.5 0 0 1 -2.5,-2.5 v-3 a2.5,2.5 0 0 1 2.5,-2.5 z M11,34 h12 a7,7 0 0 1 7,7 v12 a7,7 0 0 1 -7,7 h-12 a7,7 0 0 1 -7,-7 v-12 a7,7 0 0 1 7,-7 z M13,39 h8 a4,4 0 0 1 4,4 v8 a4,4 0 0 1 -4,4 h-8 a4,4 0 0 1 -4,-4 v-8 a4,4 0 0 1 4,-4 z M15.5,43 h3 a2.5,2.5 0 0 1 2.5,2.5 v3 a2.5,2.5 0 0 1 -2.5,2.5 h-3 a2.5,2.5 0 0 1 -2.5,-2.5 v-3 a2.5,2.5 0 0 1 2.5,-2.5 z"/><circle cx="47" cy="40.4" r="6.4" fill="#1a1a1a"/><circle cx="47" cy="53.6" r="6.4" fill="#1a1a1a"/><circle cx="40.4" cy="47" r="6.4" fill="#1a1a1a"/><circle cx="53.6" cy="47" r="6.4" fill="#1a1a1a"/><circle cx="47" cy="47" r="3.1" fill="#7dd56f"/></g></svg>
